<?xml version="1.0" standalone="no"?>
<!DOCTYPE svg PUBLIC "-//W3C//DTD SVG 20010904//EN"
 "http://www.w3.org/TR/2001/REC-SVG-20010904/DTD/svg10.dtd">
<svg version="1.0" xmlns="http://www.w3.org/2000/svg"
 width="583.000000pt" height="369.000000pt" viewBox="0 0 583.000000 369.000000"
 preserveAspectRatio="xMidYMid meet">

<g transform="translate(0.000000,369.000000) scale(0.100000,-0.100000)"
fill="#000000" stroke="none">
<path d="M3038 2706 c-170 -70 -277 -188 -314 -346 -8 -34 -25 -82 -39 -108
-14 -26 -25 -54 -25 -62 0 -9 -12 -60 -26 -115 -50 -190 -49 -179 -31 -247 9
-35 21 -87 27 -116 13 -57 25 -73 33 -42 9 35 24 22 53 -47 23 -54 29 -62 34
-44 5 21 7 20 24 -15 18 -39 77 -134 82 -134 2 0 0 7 -3 17 -5 12 -3 14 8 8 9
-5 8 -2 -3 11 -21 24 -58 103 -57 124 0 8 7 2 15 -13 12 -22 18 -26 28 -18 10
8 19 7 35 -6 19 -16 32 -43 77 -166 15 -39 40 -185 33 -191 -7 -6 -969 -56
-1083 -56 l-39 0 7 -142 c4 -79 9 -186 12 -238 l6 -95 478 0 c456 0 478 -1
463 -18 -9 -9 -13 -20 -10 -24 8 -7 58 37 53 46 -2 3 87 7 198 7 226 2 504 22
901 64 149 16 328 33 399 36 l129 7 -7 101 c-3 56 -9 163 -12 240 l-7 138 -81
-6 c-45 -3 -152 -9 -239 -12 -87 -4 -160 -11 -163 -16 -3 -5 -32 -6 -65 -2
-46 5 -59 4 -59 -7 0 -10 -3 -10 -12 -1 -19 19 -25 14 -32 -23 -9 -48 -47 -76
-88 -65 -44 13 -102 65 -92 82 6 10 13 10 -336 -7 -215 -10 -296 -11 -301 -3
-4 6 -10 36 -14 67 -4 31 -20 94 -36 140 -15 46 -26 81 -22 78 14 -15 43 15
43 44 0 20 4 28 12 23 8 -5 9 -2 5 9 -3 9 -2 19 3 22 12 7 13 45 2 45 -10 0
-29 46 -41 101 -6 25 -26 70 -46 98 -57 86 -78 198 -51 278 17 52 43 73 91 73
14 0 25 4 25 8 0 5 13 7 29 4 32 -4 52 15 30 29 -8 5 -25 7 -37 4 -15 -4 -21
-2 -17 5 3 5 -1 10 -9 10 -8 0 -18 -4 -21 -10 -11 -19 -23 -10 -17 13 8 32 20
37 84 30 41 -4 58 -2 58 6 0 15 -43 31 -86 31 -19 0 -34 3 -34 6 0 4 14 29 30
56 17 27 27 54 24 60 -4 6 -3 8 4 4 6 -3 14 3 17 14 4 12 17 26 31 32 13 6 21
14 19 18 -3 4 8 10 23 13 15 3 39 8 55 11 15 4 27 3 27 -1 0 -5 29 -16 64 -26
55 -16 68 -25 99 -66 106 -138 130 -333 66 -523 -10 -31 -19 -60 -19 -62 0 -3
15 -9 33 -14 36 -9 33 13 25 -204 l-3 -97 47 46 c26 25 70 80 100 122 l52 76
1 85 c0 84 -48 386 -67 423 -6 12 -5 23 3 33 9 12 5 27 -22 80 -18 37 -34 72
-35 79 -5 35 -18 56 -44 75 -24 17 -28 26 -24 48 8 40 -27 67 -136 102 -120
38 -209 40 -292 6z m442 -728 c0 -10 -4 -18 -9 -18 -5 0 -12 -8 -14 -17 -3
-10 -5 -4 -6 14 -1 43 9 69 20 51 5 -7 9 -21 9 -30z m167 -165 c-3 -10 -5 -4
-5 12 0 17 2 24 5 18 2 -7 2 -21 0 -30z m-323 -694 c27 -21 36 -75 16 -95 -7
-7 -2 -18 15 -34 34 -32 33 -74 -4 -111 -32 -31 -45 -34 -87 -19 -18 7 -30 7
-40 -1 -18 -15 -65 -7 -77 13 -15 23 8 48 43 48 35 0 44 29 34 107 -6 50 -5
55 12 51 17 -3 19 -13 19 -91 0 -83 1 -88 22 -94 46 -11 71 15 59 62 -5 18
-15 27 -36 32 -30 6 -43 33 -15 33 22 0 38 36 25 59 -13 24 -40 34 -74 25 -35
-8 -49 -38 -41 -81 5 -30 4 -34 -12 -31 -22 4 -38 47 -29 82 15 58 118 86 170
45z m-366 -11 c25 -25 1 -117 -44 -169 -11 -12 -12 -23 -5 -43 14 -36 27 -33
51 14 25 49 45 53 36 8 -13 -67 -79 -101 -110 -57 -13 20 -16 20 -43 5 -78
-42 -73 -41 -103 -24 -25 14 -31 14 -41 2 -15 -19 -54 -18 -73 2 -19 18 -21
66 -5 96 8 15 8 19 -1 16 -6 -2 -20 -27 -30 -57 -24 -72 -41 -88 -76 -72 -19
8 -30 9 -38 1 -14 -14 -49 -13 -71 4 -17 12 -22 12 -44 -5 -45 -35 -125 -16
-149 36 -17 37 -15 107 4 155 30 76 116 107 150 55 14 -21 15 -31 5 -51 -14
-32 -37 -26 -33 9 4 31 -17 44 -46 28 -31 -17 -53 -75 -50 -133 2 -42 8 -54
31 -72 26 -19 30 -19 55 -5 15 8 39 36 53 62 34 64 39 67 92 72 l47 5 0 -66
c0 -48 3 -65 13 -62 15 6 46 84 46 121 1 27 23 38 36 17 3 -5 16 -10 29 -10
33 0 37 -9 21 -41 -17 -32 -20 -89 -5 -89 13 0 50 60 50 79 0 27 42 61 76 61
36 0 53 -16 64 -63 7 -29 8 -28 9 18 2 59 18 134 33 152 13 16 50 17 66 1z
m1127 -63 c1 -21 35 -85 47 -85 4 0 10 9 13 20 3 11 10 20 15 20 33 0 8 -66
-35 -94 -31 -21 -90 -18 -90 4 0 10 8 14 28 12 33 -3 37 23 9 59 l-19 22 -7
-26 c-8 -34 -90 -97 -127 -97 -15 0 -34 6 -42 14 -12 12 -16 12 -30 -5 -36
-42 -93 -6 -85 53 3 18 8 41 13 51 4 10 3 17 -3 17 -6 0 -18 -22 -26 -48 -23
-68 -42 -92 -75 -92 -15 0 -32 5 -39 12 -15 15 -16 73 -1 100 8 15 8 19 -1 16
-7 -2 -21 -26 -32 -53 -11 -28 -28 -59 -39 -70 -16 -17 -22 -18 -39 -7 -15 9
-26 10 -40 2 -77 -41 -127 65 -61 130 23 23 36 29 67 27 l39 -3 3 -62 c2 -34
7 -62 11 -62 10 0 51 105 51 131 0 20 24 26 35 9 3 -5 17 -10 31 -10 28 0 30
-14 8 -58 -15 -31 -12 -72 6 -72 16 0 38 42 51 95 17 64 24 73 47 52 11 -10
26 -15 35 -12 23 9 30 -12 13 -37 -9 -12 -16 -38 -16 -56 0 -51 30 -38 53 23
20 56 48 85 81 85 33 0 57 -22 65 -60 l8 -35 18 58 c16 48 22 57 39 55 13 -2
21 -11 21 -23z"/>
<path d="M2917 1084 c-3 -6 -9 -30 -13 -54 -9 -53 12 -48 22 5 7 37 2 66 -9
49z"/>
<path d="M2790 941 c0 -16 5 -33 10 -36 6 -4 10 6 10 24 0 16 -4 33 -10 36 -6
4 -10 -6 -10 -24z"/>
<path d="M2430 930 c-16 -29 -9 -74 12 -78 19 -4 32 17 43 66 6 29 5 32 -19
32 -15 0 -30 -8 -36 -20z"/>
<path d="M2740 915 c0 -28 15 -48 33 -43 13 2 11 8 -9 33 -21 26 -24 27 -24
10z"/>
<path d="M3940 986 c0 -14 5 -28 10 -31 6 -4 10 7 10 24 0 17 -4 31 -10 31 -5
0 -10 -11 -10 -24z"/>
<path d="M3442 978 c-19 -25 -22 -54 -7 -74 15 -19 15 -19 35 5 26 31 27 81 1
81 -10 0 -23 -6 -29 -12z"/>
<path d="M3890 958 c0 -14 7 -31 15 -38 27 -22 32 -5 8 29 -22 33 -23 33 -23
9z"/>
<path d="M3285 2311 c-46 -11 -79 -31 -68 -42 6 -6 26 -4 52 6 67 23 106 20
131 -12 l21 -28 -16 32 c-24 50 -52 60 -120 44z"/>
<path d="M3008 2243 c6 -2 18 -2 25 0 6 3 1 5 -13 5 -14 0 -19 -2 -12 -5z"/>
<path d="M3320 2241 c0 -5 -12 -11 -27 -13 -16 -3 -37 -9 -48 -13 -18 -8 -19
-7 -5 11 11 15 11 16 0 7 -16 -15 -22 -43 -10 -43 5 0 12 5 16 11 5 8 8 8 13
0 4 -6 31 -14 59 -16 43 -5 54 -2 59 11 4 11 -2 23 -18 35 -26 20 -39 24 -39
10z"/>
<path d="M3090 2016 c0 -2 9 -6 20 -9 11 -3 18 -1 14 4 -5 9 -34 13 -34 5z"/>
<path d="M3186 2012 c-2 -4 4 -8 15 -8 10 0 19 4 19 8 0 4 -6 8 -14 8 -8 0
-17 -4 -20 -8z"/>
<path d="M3265 1919 c-33 -11 -194 -13 -228 -4 -16 4 -18 4 -7 -3 33 -21 227
-19 256 3 22 16 20 17 -21 4z"/>
<path d="M3275 1825 c-14 -13 -25 -30 -25 -37 0 -7 6 -4 12 7 6 11 21 28 32
37 12 10 17 17 13 18 -4 0 -19 -11 -32 -25z"/>
<path d="M3343 1762 c27 -28 33 -31 36 -15 2 10 8 21 15 25 6 5 2 8 -11 8 -12
0 -24 4 -28 9 -3 6 -14 9 -25 8 -18 -1 -16 -5 13 -35z"/>
<path d="M2975 1761 c19 -22 55 -46 55 -38 0 3 -17 17 -37 33 -31 23 -34 24
-18 5z"/>
<path d="M3150 1705 c-13 -14 -21 -27 -18 -31 3 -3 16 9 28 25 26 37 22 40
-10 6z"/>
<path d="M3222 1615 c-11 -17 -13 -53 -3 -59 5 -3 23 -3 40 0 27 6 31 10 31
40 0 32 -2 34 -31 32 -17 -1 -33 -7 -37 -13z m18 -5 c0 -5 -5 -10 -11 -10 -5
0 -7 5 -4 10 3 6 8 10 11 10 2 0 4 -4 4 -10z"/>
<path d="M3160 1590 c0 -19 3 -21 12 -12 9 9 9 15 0 24 -9 9 -12 7 -12 -12z"/>
<path d="M2962 1464 c10 -10 20 -15 24 -12 3 4 -5 12 -18 18 -22 12 -22 12 -6
-6z"/>
<path d="M3000 1446 c0 -2 8 -10 18 -17 15 -13 16 -12 3 4 -13 16 -21 21 -21
13z"/>
<path d="M2845 1210 c3 -5 11 -10 16 -10 6 0 7 5 4 10 -3 6 -11 10 -16 10 -6
0 -7 -4 -4 -10z"/>
<path d="M1720 455 c0 -90 4 -145 10 -145 6 0 10 27 10 60 l0 60 42 0 c48 0
44 14 -5 14 l-32 1 0 70 0 70 48 0 c26 0 47 3 47 8 0 4 -27 7 -60 7 l-60 0 0
-145z"/>
<path d="M1877 582 c-14 -15 -17 -40 -17 -129 0 -123 9 -143 66 -143 49 0 54
13 54 147 0 111 -2 123 -19 133 -30 15 -66 12 -84 -8z m75 -9 c15 -14 18 -32
18 -119 0 -108 -10 -134 -49 -134 -35 0 -41 21 -41 137 0 96 2 113 18 122 24
14 33 13 54 -6z"/>
<path d="M2010 455 c0 -173 18 -200 22 -34 l3 112 39 -107 c21 -59 43 -109 48
-112 4 -3 7 61 6 143 l-2 148 -6 -120 -5 -120 -44 118 c-24 64 -48 117 -53
117 -4 0 -8 -65 -8 -145z"/>
<path d="M2178 589 c-16 -9 -18 -26 -18 -132 0 -135 5 -147 55 -147 55 0 65
22 65 147 0 94 -3 112 -18 126 -21 19 -58 22 -84 6z m63 -9 c17 -10 19 -22 19
-123 0 -114 -7 -137 -39 -137 -8 0 -23 7 -33 17 -25 23 -27 207 -1 235 19 21
27 22 54 8z"/>
<path d="M2360 596 c0 -4 -45 -217 -55 -263 -3 -13 -1 -23 3 -23 5 0 13 19 18
43 8 38 12 42 41 45 28 3 33 0 39 -25 11 -52 15 -63 23 -63 5 0 -5 60 -20 133
-16 72 -29 138 -29 145 0 10 -20 19 -20 8z m19 -93 c24 -98 24 -93 -10 -93
-27 0 -30 3 -26 23 4 12 9 41 13 65 4 23 8 42 10 42 2 0 7 -17 13 -37z"/>
<path d="M2460 472 c0 -143 8 -162 66 -162 50 0 54 12 52 160 l-2 135 -5 -133
c-6 -137 -11 -151 -51 -152 -34 0 -40 22 -40 152 0 79 -4 128 -10 128 -6 0
-10 -49 -10 -128z"/>
<path d="M2605 455 l0 -145 41 0 c65 0 74 17 74 147 0 127 -9 143 -76 143
l-39 0 0 -145z m84 118 c20 -17 22 -26 19 -123 -3 -101 -4 -105 -29 -119 -52
-29 -59 -15 -59 122 0 68 3 127 7 130 12 12 40 7 62 -10z"/>
<path d="M2745 455 c0 -80 3 -145 8 -145 4 0 7 65 7 145 0 80 -3 145 -7 145
-5 0 -8 -65 -8 -145z"/>
<path d="M2800 580 c-17 -17 -20 -33 -20 -123 0 -121 11 -147 64 -147 56 0 66
21 66 147 0 94 -3 112 -18 126 -25 23 -68 21 -92 -3z m71 0 c17 -10 19 -22 19
-123 0 -116 -6 -137 -41 -137 -39 0 -49 26 -49 135 0 81 3 107 16 119 18 19
28 20 55 6z"/>
<path d="M2930 455 l0 -145 60 0 c33 0 60 3 60 8 0 4 -22 5 -50 4 l-50 -4 0
141 c0 87 -4 141 -10 141 -6 0 -10 -55 -10 -145z"/>
<path d="M3090 580 c-17 -17 -20 -33 -20 -123 0 -121 11 -147 64 -147 56 0 66
21 66 147 0 94 -3 112 -18 126 -25 23 -68 21 -92 -3z m71 0 c17 -10 19 -22 19
-123 0 -116 -6 -137 -41 -137 -39 0 -49 26 -49 135 0 81 3 107 16 119 18 19
28 20 55 6z"/>
<path d="M3237 582 c-14 -15 -17 -40 -17 -129 0 -121 10 -143 62 -143 38 0 58
29 58 83 0 45 -1 47 -27 46 -18 -1 -22 -3 -10 -6 15 -4 17 -13 15 -50 -3 -53
-26 -75 -55 -57 -15 9 -18 29 -21 127 -2 108 -1 117 18 127 24 13 60 -2 60
-25 0 -8 5 -15 10 -15 16 0 11 26 -8 43 -24 22 -65 21 -85 -1z"/>
<path d="M3420 596 c0 -4 -45 -217 -55 -263 -3 -13 -1 -23 3 -23 5 0 13 19 18
43 8 38 12 42 41 45 28 3 33 0 39 -25 11 -52 15 -63 23 -63 5 0 -5 60 -20 133
-16 72 -29 138 -29 145 0 10 -20 19 -20 8z m19 -93 c24 -98 24 -93 -10 -93
-27 0 -30 3 -26 23 4 12 9 41 13 65 4 23 8 42 10 42 2 0 7 -17 13 -37z"/>
<path d="M3620 455 c0 -90 4 -145 10 -145 6 0 10 55 10 145 0 90 -4 145 -10
145 -6 0 -10 -55 -10 -145z"/>
<path d="M3655 455 c0 -80 3 -145 7 -145 4 0 9 53 10 118 l3 117 45 -117 c24
-65 48 -118 52 -118 5 0 8 65 8 145 0 90 -4 145 -10 145 -6 0 -10 -45 -11
-112 l0 -113 -42 112 c-23 62 -46 113 -52 113 -6 0 -10 -55 -10 -145z"/>
<path d="M3800 455 c0 -90 4 -145 10 -145 6 0 10 27 10 60 l0 60 42 0 c48 0
44 14 -5 14 l-32 1 0 70 0 70 48 0 c26 0 47 3 47 8 0 4 -27 7 -60 7 l-60 0 0
-145z"/>
<path d="M4000 596 c0 -4 -45 -217 -55 -263 -3 -13 -1 -23 3 -23 5 0 13 19 18
43 8 38 12 42 41 45 28 3 33 0 39 -25 11 -52 15 -63 23 -63 5 0 -5 60 -20 133
-16 72 -29 138 -29 145 0 10 -20 19 -20 8z m19 -93 c24 -98 24 -93 -10 -93
-27 0 -30 3 -26 23 4 12 9 41 13 65 4 23 8 42 10 42 2 0 7 -17 13 -37z"/>
<path d="M4100 455 c0 -173 18 -200 22 -34 l3 112 39 -107 c21 -59 43 -109 48
-112 4 -3 7 61 6 143 l-2 148 -6 -120 -5 -120 -44 118 c-24 64 -48 117 -53
117 -4 0 -8 -65 -8 -145z"/>
<path d="M4244 591 c3 -4 17 -6 31 -3 l25 4 0 -141 c0 -185 18 -189 22 -3 l3
137 28 0 c15 -1 27 3 27 7 0 4 -32 8 -71 8 -38 0 -68 -4 -65 -9z"/>
<path d="M4400 455 c0 -90 4 -145 10 -145 6 0 10 55 10 145 0 90 -4 145 -10
145 -6 0 -10 -55 -10 -145z"/>
<path d="M4440 455 l0 -145 60 0 c33 0 60 3 60 8 0 4 -22 5 -50 4 l-50 -4 0
141 c0 87 -4 141 -10 141 -6 0 -10 -55 -10 -145z"/>
</g>
</svg>
